<svg width="585" height="360" viewBox="0 0 585 360" fill="none" xmlns="http://www.w3.org/2000/svg">
<rect width="585" height="360" rx="16" fill="white"/>
<mask id="path-2-outside-1_212_429" maskUnits="userSpaceOnUse" x="50" y="136" width="484" height="89" fill="black">
<rect fill="white" x="50" y="136" width="484" height="89"/>
<path d="M86.5852 179.487L80.8675 179.06C75.4073 179.06 71.9045 180.838 70.3592 184.394V220.933H53V163.217H69.2775L69.8441 170.632C72.7631 164.978 76.8324 162.15 82.0522 162.15C83.9066 162.15 85.5206 162.364 86.8942 162.79L86.5852 179.487Z"/>
<path d="M118.78 222C110.229 222 103.309 219.368 98.0206 214.105C92.7322 208.807 90.0879 201.926 90.0879 193.462V191.969C90.0879 186.065 91.1353 180.856 93.2301 176.339C95.3592 171.823 98.4499 168.338 102.502 165.884C106.554 163.395 111.362 162.15 116.925 162.15C124.755 162.15 130.936 164.675 135.469 169.725C140.002 174.739 142.269 181.745 142.269 190.742V197.729H107.756C108.374 200.966 109.731 203.508 111.826 205.357C113.92 207.207 116.633 208.131 119.964 208.131C125.459 208.131 129.751 206.14 132.842 202.157L140.775 211.865C138.611 214.959 135.538 217.43 131.554 219.28C127.605 221.093 123.347 222 118.78 222ZM116.822 176.019C111.74 176.019 108.718 179.504 107.756 186.474H125.27V185.087C125.339 182.207 124.635 179.984 123.158 178.42C121.681 176.819 119.569 176.019 116.822 176.019Z"/>
<path d="M180.696 220.933C180.078 219.76 179.528 218.035 179.047 215.759C175.854 219.92 171.389 222 165.655 222C160.4 222 155.936 220.364 152.262 217.093C148.587 213.785 146.75 209.642 146.75 204.664C146.75 198.405 148.982 193.675 153.446 190.475C157.911 187.274 164.401 185.674 172.918 185.674H178.275V182.634C178.275 177.335 176.06 174.686 171.63 174.686C167.509 174.686 165.449 176.784 165.449 180.98H148.089C148.089 175.397 150.373 170.863 154.94 167.378C159.542 163.893 165.397 162.15 172.506 162.15C179.614 162.15 185.229 163.946 189.35 167.538C193.47 171.13 195.582 176.055 195.685 182.314V207.864C195.754 213.163 196.544 217.217 198.055 220.026V220.933H180.696ZM169.827 209.198C171.99 209.198 173.776 208.718 175.184 207.758C176.626 206.798 177.657 205.713 178.275 204.504V195.276H173.227C167.183 195.276 164.161 198.085 164.161 203.704C164.161 205.34 164.693 206.673 165.758 207.704C166.822 208.7 168.179 209.198 169.827 209.198Z"/>
<path d="M223.656 220.933H206.245V139H223.656V220.933Z"/>
<path d="M300.694 197.249L306.309 163.217H322.947L309.812 220.933H295.131L285.911 186.688L276.639 220.933H261.958L248.823 163.217H265.461L270.972 198.049L279.832 163.217H291.937L300.694 197.249Z"/>
<path d="M360.602 220.933C359.983 219.76 359.434 218.035 358.953 215.759C355.76 219.92 351.295 222 345.56 222C340.306 222 335.842 220.364 332.168 217.093C328.493 213.785 326.656 209.642 326.656 204.664C326.656 198.405 328.888 193.675 333.352 190.475C337.817 187.274 344.307 185.674 352.823 185.674H358.181V182.634C358.181 177.335 355.966 174.686 351.536 174.686C347.415 174.686 345.354 176.784 345.354 180.98H327.995C327.995 175.397 330.279 170.863 334.846 167.378C339.448 163.893 345.303 162.15 352.411 162.15C359.52 162.15 365.135 163.946 369.255 167.538C373.376 171.13 375.488 176.055 375.591 182.314V207.864C375.66 213.163 376.45 217.217 377.961 220.026V220.933H360.602ZM349.733 209.198C351.896 209.198 353.682 208.718 355.09 207.758C356.532 206.798 357.562 205.713 358.181 204.504V195.276H353.133C347.089 195.276 344.067 198.085 344.067 203.704C344.067 205.34 344.599 206.673 345.663 207.704C346.728 208.7 348.084 209.198 349.733 209.198Z"/>
<path d="M403.562 220.933H386.151V139H403.562V220.933Z"/>
<path d="M432.614 220.933H415.203V139H432.614V220.933Z"/>
<path d="M470.32 222C461.769 222 454.85 219.368 449.561 214.105C444.273 208.807 441.628 201.926 441.628 193.462V191.969C441.628 186.065 442.676 180.856 444.771 176.339C446.9 171.823 449.99 168.338 454.043 165.884C458.095 163.395 462.902 162.15 468.466 162.15C476.295 162.15 482.477 164.675 487.01 169.725C491.543 174.739 493.809 181.745 493.809 190.742V197.729H459.297C459.915 200.966 461.271 203.508 463.366 205.357C465.461 207.207 468.174 208.131 471.505 208.131C476.999 208.131 481.292 206.14 484.383 202.157L492.315 211.865C490.152 214.959 487.078 217.43 483.095 219.28C479.146 221.093 474.887 222 470.32 222ZM468.363 176.019C463.28 176.019 460.258 179.504 459.297 186.474H476.81V185.087C476.879 182.207 476.175 179.984 474.698 178.42C473.222 176.819 471.11 176.019 468.363 176.019Z"/>
<path d="M521.058 148.868V163.217H530.227V175.699H521.058V202.103C521.058 204.273 521.436 205.784 522.192 206.638C522.947 207.491 524.441 207.918 526.673 207.918C528.39 207.918 529.832 207.811 531 207.598V220.453C527.875 221.484 524.613 222 521.213 222C515.238 222 510.825 220.542 507.975 217.626C505.124 214.71 503.699 210.283 503.699 204.344V175.699H496.591V163.217H503.699V148.868H521.058Z"/>
</mask>
<path d="M86.5852 179.487L80.8675 179.06C75.4073 179.06 71.9045 180.838 70.3592 184.394V220.933H53V163.217H69.2775L69.8441 170.632C72.7631 164.978 76.8324 162.15 82.0522 162.15C83.9066 162.15 85.5206 162.364 86.8942 162.79L86.5852 179.487Z" fill="black"/>
<path d="M118.78 222C110.229 222 103.309 219.368 98.0206 214.105C92.7322 208.807 90.0879 201.926 90.0879 193.462V191.969C90.0879 186.065 91.1353 180.856 93.2301 176.339C95.3592 171.823 98.4499 168.338 102.502 165.884C106.554 163.395 111.362 162.15 116.925 162.15C124.755 162.15 130.936 164.675 135.469 169.725C140.002 174.739 142.269 181.745 142.269 190.742V197.729H107.756C108.374 200.966 109.731 203.508 111.826 205.357C113.92 207.207 116.633 208.131 119.964 208.131C125.459 208.131 129.751 206.14 132.842 202.157L140.775 211.865C138.611 214.959 135.538 217.43 131.554 219.28C127.605 221.093 123.347 222 118.78 222ZM116.822 176.019C111.74 176.019 108.718 179.504 107.756 186.474H125.27V185.087C125.339 182.207 124.635 179.984 123.158 178.42C121.681 176.819 119.569 176.019 116.822 176.019Z" fill="black"/>
<path d="M180.696 220.933C180.078 219.76 179.528 218.035 179.047 215.759C175.854 219.92 171.389 222 165.655 222C160.4 222 155.936 220.364 152.262 217.093C148.587 213.785 146.75 209.642 146.75 204.664C146.75 198.405 148.982 193.675 153.446 190.475C157.911 187.274 164.401 185.674 172.918 185.674H178.275V182.634C178.275 177.335 176.06 174.686 171.63 174.686C167.509 174.686 165.449 176.784 165.449 180.98H148.089C148.089 175.397 150.373 170.863 154.94 167.378C159.542 163.893 165.397 162.15 172.506 162.15C179.614 162.15 185.229 163.946 189.35 167.538C193.47 171.13 195.582 176.055 195.685 182.314V207.864C195.754 213.163 196.544 217.217 198.055 220.026V220.933H180.696ZM169.827 209.198C171.99 209.198 173.776 208.718 175.184 207.758C176.626 206.798 177.657 205.713 178.275 204.504V195.276H173.227C167.183 195.276 164.161 198.085 164.161 203.704C164.161 205.34 164.693 206.673 165.758 207.704C166.822 208.7 168.179 209.198 169.827 209.198Z" fill="black"/>
<path d="M223.656 220.933H206.245V139H223.656V220.933Z" fill="black"/>
<path d="M300.694 197.249L306.309 163.217H322.947L309.812 220.933H295.131L285.911 186.688L276.639 220.933H261.958L248.823 163.217H265.461L270.972 198.049L279.832 163.217H291.937L300.694 197.249Z" fill="black"/>
<path d="M360.602 220.933C359.983 219.76 359.434 218.035 358.953 215.759C355.76 219.92 351.295 222 345.56 222C340.306 222 335.842 220.364 332.168 217.093C328.493 213.785 326.656 209.642 326.656 204.664C326.656 198.405 328.888 193.675 333.352 190.475C337.817 187.274 344.307 185.674 352.823 185.674H358.181V182.634C358.181 177.335 355.966 174.686 351.536 174.686C347.415 174.686 345.354 176.784 345.354 180.98H327.995C327.995 175.397 330.279 170.863 334.846 167.378C339.448 163.893 345.303 162.15 352.411 162.15C359.52 162.15 365.135 163.946 369.255 167.538C373.376 171.13 375.488 176.055 375.591 182.314V207.864C375.66 213.163 376.45 217.217 377.961 220.026V220.933H360.602ZM349.733 209.198C351.896 209.198 353.682 208.718 355.09 207.758C356.532 206.798 357.562 205.713 358.181 204.504V195.276H353.133C347.089 195.276 344.067 198.085 344.067 203.704C344.067 205.34 344.599 206.673 345.663 207.704C346.728 208.7 348.084 209.198 349.733 209.198Z" fill="black"/>
<path d="M403.562 220.933H386.151V139H403.562V220.933Z" fill="black"/>
<path d="M432.614 220.933H415.203V139H432.614V220.933Z" fill="black"/>
<path d="M470.32 222C461.769 222 454.85 219.368 449.561 214.105C444.273 208.807 441.628 201.926 441.628 193.462V191.969C441.628 186.065 442.676 180.856 444.771 176.339C446.9 171.823 449.99 168.338 454.043 165.884C458.095 163.395 462.902 162.15 468.466 162.15C476.295 162.15 482.477 164.675 487.01 169.725C491.543 174.739 493.809 181.745 493.809 190.742V197.729H459.297C459.915 200.966 461.271 203.508 463.366 205.357C465.461 207.207 468.174 208.131 471.505 208.131C476.999 208.131 481.292 206.14 484.383 202.157L492.315 211.865C490.152 214.959 487.078 217.43 483.095 219.28C479.146 221.093 474.887 222 470.32 222ZM468.363 176.019C463.28 176.019 460.258 179.504 459.297 186.474H476.81V185.087C476.879 182.207 476.175 179.984 474.698 178.42C473.222 176.819 471.11 176.019 468.363 176.019Z" fill="black"/>
<path d="M521.058 148.868V163.217H530.227V175.699H521.058V202.103C521.058 204.273 521.436 205.784 522.192 206.638C522.947 207.491 524.441 207.918 526.673 207.918C528.39 207.918 529.832 207.811 531 207.598V220.453C527.875 221.484 524.613 222 521.213 222C515.238 222 510.825 220.542 507.975 217.626C505.124 214.71 503.699 210.283 503.699 204.344V175.699H496.591V163.217H503.699V148.868H521.058Z" fill="black"/>
<path d="M86.5852 179.487L86.3619 182.478L89.5259 182.714L89.5847 179.542L86.5852 179.487ZM80.8675 179.06L81.0907 176.068L80.9792 176.06H80.8675V179.06ZM70.3592 184.394L67.6078 183.198L67.3592 183.77V184.394H70.3592ZM70.3592 220.933V223.933H73.3592V220.933H70.3592ZM53 220.933H50V223.933H53V220.933ZM53 163.217V160.217H50V163.217H53ZM69.2775 163.217L72.2688 162.989L72.057 160.217H69.2775V163.217ZM69.8441 170.632L66.8528 170.86L67.6586 181.405L72.5098 172.008L69.8441 170.632ZM86.8942 162.79L89.8937 162.846L89.9354 160.594L87.7843 159.926L86.8942 162.79ZM98.0206 214.105L95.8972 216.225L95.9044 216.232L98.0206 214.105ZM93.2301 176.339L90.5165 175.06L90.5125 175.069L90.5086 175.077L93.2301 176.339ZM102.502 165.884L104.056 168.451L104.064 168.446L104.072 168.441L102.502 165.884ZM135.469 169.725L133.237 171.729L133.244 171.737L135.469 169.725ZM142.269 197.729V200.729H145.269V197.729H142.269ZM107.756 197.729V194.729H104.129L104.809 198.292L107.756 197.729ZM132.842 202.157L135.165 200.259L132.781 197.341L130.472 200.318L132.842 202.157ZM140.775 211.865L143.233 213.584L144.534 211.724L143.098 209.967L140.775 211.865ZM131.554 219.28L132.806 222.006L132.817 222.001L131.554 219.28ZM107.756 186.474L104.784 186.064L104.314 189.474H107.756V186.474ZM125.27 186.474V189.474H128.27V186.474H125.27ZM125.27 185.087L122.271 185.016L122.27 185.052V185.087H125.27ZM123.158 178.42L120.953 180.454L120.965 180.466L120.976 180.479L123.158 178.42ZM180.696 220.933L178.041 222.331L178.885 223.933H180.696V220.933ZM179.047 215.759L181.983 215.139L180.636 208.763L176.668 213.932L179.047 215.759ZM152.262 217.093L150.255 219.322L150.261 219.328L150.267 219.333L152.262 217.093ZM178.275 185.674V188.674H181.275V185.674H178.275ZM165.449 180.98V183.98H168.449V180.98H165.449ZM148.089 180.98H145.089V183.98H148.089V180.98ZM154.94 167.378L153.129 164.986L153.12 164.993L154.94 167.378ZM195.685 182.314H198.685V182.289L198.685 182.264L195.685 182.314ZM195.685 207.864H192.685V207.884L192.686 207.903L195.685 207.864ZM198.055 220.026H201.055V219.271L200.697 218.605L198.055 220.026ZM198.055 220.933V223.933H201.055V220.933H198.055ZM175.184 207.758L173.522 205.26L173.508 205.27L173.494 205.279L175.184 207.758ZM178.275 204.504L180.946 205.869L181.275 205.226V204.504H178.275ZM178.275 195.276H181.275V192.276H178.275V195.276ZM165.758 207.704L163.67 209.859L163.689 209.877L163.708 209.895L165.758 207.704ZM223.656 220.933V223.933H226.656V220.933H223.656ZM206.245 220.933H203.245V223.933H206.245V220.933ZM206.245 139V136H203.245V139H206.245ZM223.656 139H226.656V136H223.656V139ZM300.694 197.249L297.789 197.997L303.654 197.738L300.694 197.249ZM306.309 163.217V160.217H303.763L303.349 162.729L306.309 163.217ZM322.947 163.217L325.872 163.883L326.707 160.217H322.947V163.217ZM309.812 220.933V223.933H312.206L312.737 221.599L309.812 220.933ZM295.131 220.933L292.234 221.713L292.832 223.933H295.131V220.933ZM285.911 186.688L288.808 185.908L285.919 175.179L283.015 185.904L285.911 186.688ZM276.639 220.933V223.933H278.934L279.534 221.717L276.639 220.933ZM261.958 220.933L259.033 221.599L259.564 223.933H261.958V220.933ZM248.823 163.217V160.217H245.063L245.898 163.883L248.823 163.217ZM265.461 163.217L268.424 162.748L268.023 160.217H265.461V163.217ZM270.972 198.049L268.009 198.518L273.88 198.789L270.972 198.049ZM279.832 163.217V160.217H277.5L276.925 162.478L279.832 163.217ZM291.937 163.217L294.843 162.47L294.263 160.217H291.937V163.217ZM360.602 220.933L357.947 222.331L358.791 223.933H360.602V220.933ZM358.953 215.759L361.888 215.139L360.542 208.763L356.573 213.932L358.953 215.759ZM332.168 217.093L330.161 219.322L330.167 219.328L330.173 219.333L332.168 217.093ZM358.181 185.674V188.674H361.181V185.674H358.181ZM345.354 180.98V183.98H348.354V180.98H345.354ZM327.995 180.98H324.995V183.98H327.995V180.98ZM334.846 167.378L333.035 164.986L333.026 164.993L334.846 167.378ZM375.591 182.314H378.591V182.289L378.591 182.264L375.591 182.314ZM375.591 207.864H372.591V207.884L372.592 207.903L375.591 207.864ZM377.961 220.026H380.961V219.271L380.603 218.605L377.961 220.026ZM377.961 220.933V223.933H380.961V220.933H377.961ZM355.09 207.758L353.427 205.26L353.414 205.27L353.4 205.279L355.09 207.758ZM358.181 204.504L360.852 205.869L361.181 205.226V204.504H358.181ZM358.181 195.276H361.181V192.276H358.181V195.276ZM345.663 207.704L343.576 209.859L343.595 209.877L343.614 209.895L345.663 207.704ZM403.562 220.933V223.933H406.562V220.933H403.562ZM386.151 220.933H383.151V223.933H386.151V220.933ZM386.151 139V136H383.151V139H386.151ZM403.562 139H406.562V136H403.562V139ZM432.614 220.933V223.933H435.614V220.933H432.614ZM415.203 220.933H412.203V223.933H415.203V220.933ZM415.203 139V136H412.203V139H415.203ZM432.614 139H435.614V136H432.614V139ZM449.561 214.105L447.438 216.225L447.445 216.232L449.561 214.105ZM444.771 176.339L442.057 175.06L442.053 175.069L442.049 175.077L444.771 176.339ZM454.043 165.884L455.596 168.451L455.605 168.446L455.613 168.441L454.043 165.884ZM487.01 169.725L484.777 171.729L484.784 171.737L487.01 169.725ZM493.809 197.729V200.729H496.809V197.729H493.809ZM459.297 197.729V194.729H455.669L456.35 198.292L459.297 197.729ZM484.383 202.157L486.706 200.259L484.322 197.341L482.012 200.318L484.383 202.157ZM492.315 211.865L494.774 213.584L496.074 211.724L494.638 209.967L492.315 211.865ZM483.095 219.28L484.347 222.006L484.358 222.001L483.095 219.28ZM459.297 186.474L456.325 186.064L455.854 189.474H459.297V186.474ZM476.81 186.474V189.474H479.81V186.474H476.81ZM476.81 185.087L473.811 185.016L473.81 185.052V185.087H476.81ZM474.698 178.42L472.494 180.454L472.505 180.466L472.517 180.479L474.698 178.42ZM521.058 148.868H524.058V145.868H521.058V148.868ZM521.058 163.217H518.058V166.217H521.058V163.217ZM530.227 163.217H533.227V160.217H530.227V163.217ZM530.227 175.699V178.699H533.227V175.699H530.227ZM521.058 175.699V172.699H518.058V175.699H521.058ZM531 207.598H534V204L530.461 204.647L531 207.598ZM531 220.453L531.94 223.302L534 222.622V220.453H531ZM503.699 175.699H506.699V172.699H503.699V175.699ZM496.591 175.699H493.591V178.699H496.591V175.699ZM496.591 163.217V160.217H493.591V163.217H496.591ZM503.699 163.217V166.217H506.699V163.217H503.699ZM503.699 148.868V145.868H500.699V148.868H503.699ZM86.8085 176.495L81.0907 176.068L80.6442 182.051L86.3619 182.478L86.8085 176.495ZM80.8675 176.06C74.7858 176.06 69.822 178.103 67.6078 183.198L73.1106 185.59C73.987 183.573 76.0288 182.06 80.8675 182.06V176.06ZM67.3592 184.394V220.933H73.3592V184.394H67.3592ZM70.3592 217.933H53V223.933H70.3592V217.933ZM56 220.933V163.217H50V220.933H56ZM53 166.217H69.2775V160.217H53V166.217ZM66.2862 163.446L66.8528 170.86L72.8354 170.403L72.2688 162.989L66.2862 163.446ZM72.5098 172.008C75.0493 167.089 78.2221 165.15 82.0522 165.15V159.15C75.4428 159.15 70.4768 162.866 67.1784 169.256L72.5098 172.008ZM82.0522 165.15C83.6873 165.15 84.9882 165.34 86.0042 165.655L87.7843 159.926C86.0531 159.388 84.1259 159.15 82.0522 159.15V165.15ZM83.8948 162.735L83.5857 179.431L89.5847 179.542L89.8937 162.846L83.8948 162.735ZM118.78 219C110.896 219 104.78 216.6 100.137 211.979L95.9044 216.232C101.838 222.137 109.561 225 118.78 225V219ZM100.144 211.986C95.492 207.325 93.0879 201.244 93.0879 193.462H87.0879C87.0879 202.607 89.9723 210.288 95.8973 216.225L100.144 211.986ZM93.0879 193.462V191.969H87.0879V193.462H93.0879ZM93.0879 191.969C93.0879 186.421 94.0712 181.656 95.9516 177.602L90.5086 175.077C88.1994 180.056 87.0879 185.709 87.0879 191.969H93.0879ZM95.9437 177.619C97.8355 173.606 100.536 170.582 104.056 168.451L100.948 163.318C96.3633 166.094 92.8829 170.04 90.5165 175.06L95.9437 177.619ZM104.072 168.441C107.577 166.288 111.821 165.15 116.925 165.15V159.15C110.903 159.15 105.532 160.502 100.932 163.328L104.072 168.441ZM116.925 165.15C124.047 165.15 129.363 167.413 133.237 171.729L137.702 167.721C132.51 161.937 125.462 159.15 116.925 159.15V165.15ZM133.244 171.737C137.132 176.038 139.269 182.237 139.269 190.742H145.269C145.269 181.252 142.872 173.44 137.695 167.713L133.244 171.737ZM139.269 190.742V197.729H145.269V190.742H139.269ZM142.269 194.729H107.756V200.729H142.269V194.729ZM104.809 198.292C105.529 202.06 107.162 205.242 109.84 207.606L113.811 203.108C112.3 201.774 111.219 199.871 110.703 197.167L104.809 198.292ZM109.84 207.606C112.585 210.029 116.05 211.131 119.964 211.131V205.131C117.217 205.131 115.256 204.384 113.811 203.108L109.84 207.606ZM119.964 211.131C126.29 211.131 131.497 208.784 135.212 203.996L130.472 200.318C128.006 203.496 124.628 205.131 119.964 205.131V211.131ZM130.519 204.055L138.452 213.763L143.098 209.967L135.165 200.259L130.519 204.055ZM138.316 210.146C136.502 212.74 133.874 214.895 130.291 216.558L132.817 222.001C137.202 219.966 140.72 217.178 143.233 213.584L138.316 210.146ZM130.302 216.553C126.766 218.177 122.937 219 118.78 219V225C123.757 225 128.444 224.009 132.806 222.006L130.302 216.553ZM116.822 173.019C113.511 173.019 110.62 174.196 108.477 176.668C106.434 179.023 105.306 182.285 104.784 186.064L110.728 186.884C111.168 183.694 112.031 181.728 113.01 180.598C113.889 179.585 115.051 179.019 116.822 179.019V173.019ZM107.756 189.474H125.27V183.474H107.756V189.474ZM128.27 186.474V185.087H122.27V186.474H128.27ZM128.269 185.159C128.35 181.764 127.523 178.674 125.34 176.361L120.976 180.479C121.746 181.295 122.327 182.65 122.271 185.016L128.269 185.159ZM125.363 176.385C123.177 174.016 120.173 173.019 116.822 173.019V179.019C118.966 179.019 120.186 179.622 120.953 180.454L125.363 176.385ZM183.35 219.535C182.923 218.724 182.442 217.315 181.983 215.139L176.112 216.379C176.614 218.755 177.232 220.795 178.041 222.331L183.35 219.535ZM176.668 213.932C174.1 217.277 170.557 219 165.655 219V225C172.222 225 177.607 222.562 181.427 217.586L176.668 213.932ZM165.655 219C161.082 219 157.342 217.599 154.257 214.852L150.267 219.333C154.53 223.129 159.719 225 165.655 225V219ZM154.269 214.863C151.231 212.129 149.75 208.799 149.75 204.664H143.75C143.75 210.486 145.943 215.442 150.255 219.322L154.269 214.863ZM149.75 204.664C149.75 199.217 151.634 195.465 155.194 192.913L151.698 188.037C146.33 191.885 143.75 197.593 143.75 204.664H149.75ZM155.194 192.913C158.938 190.229 164.706 188.674 172.918 188.674V182.674C164.096 182.674 156.883 184.32 151.698 188.037L155.194 192.913ZM172.918 188.674H178.275V182.674H172.918V188.674ZM181.275 185.674V182.634H175.275V185.674H181.275ZM181.275 182.634C181.275 179.64 180.66 176.836 178.915 174.748C177.084 172.558 174.462 171.686 171.63 171.686V177.686C173.227 177.686 173.928 178.138 174.312 178.597C174.782 179.159 175.275 180.329 175.275 182.634H181.275ZM171.63 171.686C169.093 171.686 166.643 172.335 164.853 174.157C163.074 175.969 162.449 178.433 162.449 180.98H168.449C168.449 179.331 168.853 178.648 169.134 178.361C169.406 178.085 170.046 177.686 171.63 177.686V171.686ZM165.449 177.98H148.089V183.98H165.449V177.98ZM151.089 180.98C151.089 176.364 152.911 172.7 156.76 169.763L153.12 164.993C147.835 169.026 145.089 174.43 145.089 180.98H151.089ZM156.751 169.769C160.721 166.763 165.896 165.15 172.506 165.15V159.15C164.898 159.15 158.363 161.022 153.129 164.986L156.751 169.769ZM172.506 165.15C179.112 165.15 183.951 166.812 187.378 169.799L191.321 165.276C186.506 161.08 180.116 159.15 172.506 159.15V165.15ZM187.378 169.799C190.763 172.749 192.595 176.818 192.686 182.363L198.685 182.264C198.57 175.292 196.178 169.51 191.321 165.276L187.378 169.799ZM192.685 182.314V207.864H198.685V182.314H192.685ZM192.686 207.903C192.757 213.403 193.569 218.02 195.413 221.447L200.697 218.605C199.519 216.414 198.751 212.923 198.685 207.826L192.686 207.903ZM195.055 220.026V220.933H201.055V220.026H195.055ZM198.055 217.933H180.696V223.933H198.055V217.933ZM169.827 212.198C172.431 212.198 174.849 211.617 176.874 210.236L173.494 205.279C172.703 205.818 171.55 206.198 169.827 206.198V212.198ZM176.847 210.255C178.601 209.087 180.038 207.645 180.946 205.869L175.604 203.138C175.275 203.781 174.652 204.508 173.522 205.26L176.847 210.255ZM181.275 204.504V195.276H175.275V204.504H181.275ZM178.275 192.276H173.227V198.276H178.275V192.276ZM173.227 192.276C169.794 192.276 166.661 193.069 164.385 195.186C162.067 197.34 161.161 200.374 161.161 203.704H167.161C167.161 201.415 167.766 200.234 168.47 199.58C169.215 198.887 170.615 198.276 173.227 198.276V192.276ZM161.161 203.704C161.161 206.059 161.959 208.201 163.67 209.859L167.845 205.55C167.427 205.145 167.161 204.62 167.161 203.704H161.161ZM163.708 209.895C165.402 211.48 167.525 212.198 169.827 212.198V206.198C168.832 206.198 168.242 205.92 167.807 205.513L163.708 209.895ZM223.656 217.933H206.245V223.933H223.656V217.933ZM209.245 220.933V139H203.245V220.933H209.245ZM206.245 142H223.656V136H206.245V142ZM220.656 139V220.933H226.656V139H220.656ZM303.654 197.738L309.269 163.706L303.349 162.729L297.734 196.761L303.654 197.738ZM306.309 166.217H322.947V160.217H306.309V166.217ZM320.022 162.551L306.887 220.267L312.737 221.599L325.872 163.883L320.022 162.551ZM309.812 217.933H295.131V223.933H309.812V217.933ZM298.028 220.153L288.808 185.908L283.014 187.468L292.234 221.713L298.028 220.153ZM283.015 185.904L273.743 220.149L279.534 221.717L288.806 187.472L283.015 185.904ZM276.639 217.933H261.958V223.933H276.639V217.933ZM264.883 220.267L251.748 162.551L245.898 163.883L259.033 221.599L264.883 220.267ZM248.823 166.217H265.461V160.217H248.823V166.217ZM262.498 163.686L268.009 198.518L273.936 197.581L268.424 162.748L262.498 163.686ZM273.88 198.789L282.74 163.957L276.925 162.478L268.065 197.31L273.88 198.789ZM279.832 166.217H291.937V160.217H279.832V166.217ZM289.032 163.965L297.789 197.997L303.6 196.502L294.843 162.47L289.032 163.965ZM363.256 219.535C362.829 218.724 362.348 217.315 361.888 215.139L356.018 216.379C356.52 218.755 357.138 220.795 357.947 222.331L363.256 219.535ZM356.573 213.932C354.006 217.277 350.463 219 345.56 219V225C352.128 225 357.513 222.562 361.333 217.586L356.573 213.932ZM345.56 219C340.987 219 337.248 217.599 334.162 214.852L330.173 219.333C334.436 223.129 339.625 225 345.56 225V219ZM334.174 214.863C331.137 212.129 329.656 208.799 329.656 204.664H323.656C323.656 210.486 325.849 215.442 330.161 219.322L334.174 214.863ZM329.656 204.664C329.656 199.217 331.54 195.465 335.1 192.913L331.604 188.037C326.236 191.885 323.656 197.593 323.656 204.664H329.656ZM335.1 192.913C338.844 190.229 344.612 188.674 352.823 188.674V182.674C344.002 182.674 336.789 184.32 331.604 188.037L335.1 192.913ZM352.823 188.674H358.181V182.674H352.823V188.674ZM361.181 185.674V182.634H355.181V185.674H361.181ZM361.181 182.634C361.181 179.64 360.566 176.836 358.821 174.748C356.99 172.558 354.368 171.686 351.536 171.686V177.686C353.133 177.686 353.834 178.138 354.218 178.597C354.688 179.159 355.181 180.329 355.181 182.634H361.181ZM351.536 171.686C348.999 171.686 346.548 172.335 344.759 174.157C342.98 175.969 342.354 178.433 342.354 180.98H348.354C348.354 179.331 348.759 178.648 349.04 178.361C349.311 178.085 349.952 177.686 351.536 177.686V171.686ZM345.354 177.98H327.995V183.98H345.354V177.98ZM330.995 180.98C330.995 176.364 332.817 172.7 336.666 169.763L333.026 164.993C327.741 169.026 324.995 174.43 324.995 180.98H330.995ZM336.657 169.769C340.627 166.763 345.802 165.15 352.411 165.15V159.15C344.803 159.15 338.269 161.022 333.035 164.986L336.657 169.769ZM352.411 165.15C359.018 165.15 363.857 166.812 367.284 169.799L371.227 165.276C366.412 161.08 360.022 159.15 352.411 159.15V165.15ZM367.284 169.799C370.669 172.749 372.5 176.818 372.592 182.363L378.591 182.264C378.476 175.292 376.084 169.51 371.227 165.276L367.284 169.799ZM372.591 182.314V207.864H378.591V182.314H372.591ZM372.592 207.903C372.663 213.403 373.475 218.02 375.319 221.447L380.603 218.605C379.424 216.414 378.657 212.923 378.591 207.826L372.592 207.903ZM374.961 220.026V220.933H380.961V220.026H374.961ZM377.961 217.933H360.602V223.933H377.961V217.933ZM349.733 212.198C352.337 212.198 354.755 211.617 356.78 210.236L353.4 205.279C352.609 205.818 351.456 206.198 349.733 206.198V212.198ZM356.752 210.255C358.507 209.087 359.944 207.645 360.852 205.869L355.509 203.138C355.181 203.781 354.558 204.508 353.427 205.26L356.752 210.255ZM361.181 204.504V195.276H355.181V204.504H361.181ZM358.181 192.276H353.133V198.276H358.181V192.276ZM353.133 192.276C349.7 192.276 346.567 193.069 344.29 195.186C341.972 197.34 341.067 200.374 341.067 203.704H347.067C347.067 201.415 347.672 200.234 348.376 199.58C349.121 198.887 350.521 198.276 353.133 198.276V192.276ZM341.067 203.704C341.067 206.059 341.865 208.201 343.576 209.859L347.751 205.55C347.333 205.145 347.067 204.62 347.067 203.704H341.067ZM343.614 209.895C345.308 211.48 347.431 212.198 349.733 212.198V206.198C348.738 206.198 348.148 205.92 347.713 205.513L343.614 209.895ZM403.562 217.933H386.151V223.933H403.562V217.933ZM389.151 220.933V139H383.151V220.933H389.151ZM386.151 142H403.562V136H386.151V142ZM400.562 139V220.933H406.562V139H400.562ZM432.614 217.933H415.203V223.933H432.614V217.933ZM418.203 220.933V139H412.203V220.933H418.203ZM415.203 142H432.614V136H415.203V142ZM429.614 139V220.933H435.614V139H429.614ZM470.32 219C462.437 219 456.32 216.6 451.677 211.979L447.445 216.232C453.379 222.137 461.102 225 470.32 225V219ZM451.684 211.986C447.032 207.325 444.628 201.244 444.628 193.462H438.628C438.628 202.607 441.513 210.288 447.438 216.225L451.684 211.986ZM444.628 193.462V191.969H438.628V193.462H444.628ZM444.628 191.969C444.628 186.421 445.612 181.656 447.492 177.602L442.049 175.077C439.74 180.056 438.628 185.709 438.628 191.969H444.628ZM447.484 177.619C449.376 173.606 452.077 170.582 455.596 168.451L452.489 163.318C447.904 166.094 444.423 170.04 442.057 175.06L447.484 177.619ZM455.613 168.441C459.117 166.288 463.361 165.15 468.466 165.15V159.15C462.444 159.15 457.072 160.502 452.472 163.328L455.613 168.441ZM468.466 165.15C475.588 165.15 480.903 167.413 484.777 171.729L489.242 167.721C484.05 161.937 477.003 159.15 468.466 159.15V165.15ZM484.784 171.737C488.673 176.038 490.809 182.237 490.809 190.742H496.809C496.809 181.252 494.412 173.44 489.235 167.713L484.784 171.737ZM490.809 190.742V197.729H496.809V190.742H490.809ZM493.809 194.729H459.297V200.729H493.809V194.729ZM456.35 198.292C457.07 202.06 458.702 205.242 461.381 207.606L465.351 203.108C463.84 201.774 462.76 199.871 462.243 197.167L456.35 198.292ZM461.381 207.606C464.125 210.029 467.59 211.131 471.505 211.131V205.131C468.757 205.131 466.796 204.384 465.351 203.108L461.381 207.606ZM471.505 211.131C477.83 211.131 483.037 208.784 486.753 203.996L482.012 200.318C479.546 203.496 476.168 205.131 471.505 205.131V211.131ZM482.059 204.055L489.992 213.763L494.638 209.967L486.706 200.259L482.059 204.055ZM489.857 210.146C488.043 212.74 485.415 214.895 481.832 216.558L484.358 222.001C488.742 219.966 492.261 217.178 494.774 213.584L489.857 210.146ZM481.843 216.553C478.306 218.177 474.478 219 470.32 219V225C475.297 225 479.985 224.009 484.347 222.006L481.843 216.553ZM468.363 173.019C465.051 173.019 462.161 174.196 460.018 176.668C457.975 179.023 456.846 182.285 456.325 186.064L462.269 186.884C462.709 183.694 463.572 181.728 464.551 180.598C465.43 179.585 466.592 179.019 468.363 179.019V173.019ZM459.297 189.474H476.81V183.474H459.297V189.474ZM479.81 186.474V185.087H473.81V186.474H479.81ZM479.81 185.159C479.89 181.764 479.063 178.674 476.88 176.361L472.517 180.479C473.287 181.295 473.868 182.65 473.811 185.016L479.81 185.159ZM476.903 176.385C474.717 174.016 471.714 173.019 468.363 173.019V179.019C470.506 179.019 471.726 179.622 472.494 180.454L476.903 176.385ZM518.058 148.868V163.217H524.058V148.868H518.058ZM521.058 166.217H530.227V160.217H521.058V166.217ZM527.227 163.217V175.699H533.227V163.217H527.227ZM530.227 172.699H521.058V178.699H530.227V172.699ZM518.058 175.699V202.103H524.058V175.699H518.058ZM518.058 202.103C518.058 204.427 518.424 206.907 519.945 208.626L524.438 204.649C524.475 204.691 524.365 204.588 524.252 204.136C524.141 203.691 524.058 203.031 524.058 202.103H518.058ZM519.945 208.626C521.622 210.52 524.317 210.918 526.673 210.918V204.918C525.725 204.918 525.093 204.825 524.703 204.713C524.312 204.602 524.322 204.519 524.438 204.649L519.945 208.626ZM526.673 210.918C528.498 210.918 530.134 210.806 531.539 210.549L530.461 204.647C529.53 204.817 528.282 204.918 526.673 204.918V210.918ZM528 207.598V220.453H534V207.598H528ZM530.06 217.604C527.248 218.532 524.304 219 521.213 219V225C524.921 225 528.502 224.437 531.94 223.302L530.06 217.604ZM521.213 219C515.669 219 512.188 217.645 510.12 215.529L505.829 219.723C509.462 223.439 514.806 225 521.213 225V219ZM510.12 215.529C508.024 213.385 506.699 209.855 506.699 204.344H500.699C500.699 210.71 502.224 216.035 505.829 219.723L510.12 215.529ZM506.699 204.344V175.699H500.699V204.344H506.699ZM503.699 172.699H496.591V178.699H503.699V172.699ZM499.591 175.699V163.217H493.591V175.699H499.591ZM496.591 166.217H503.699V160.217H496.591V166.217ZM506.699 163.217V148.868H500.699V163.217H506.699ZM503.699 151.868H521.058V145.868H503.699V151.868Z" fill="white" mask="url(#path-2-outside-1_212_429)"/>
</svg>
